<svg width="180" height="180" version="1.1" xmlns="http://www.w3.org/2000/svg" desc="Created with imagetracer.js version 1.2.6" ><path fill="rgb(226,0,226)" stroke="rgb(226,0,226)" stroke-width="1" opacity="1" d="M 20.5 69 L 29 69.5 L 20.5 70 L 20.5 69 Z " /><path fill="rgb(226,0,226)" stroke="rgb(226,0,226)" stroke-width="1" opacity="1" d="M 56.5 69 Q 62.5 67.5 64 70.5 Q 63 73 62 71.5 L 62.5 70 L 56.5 70 L 56.5 69 Z " /><path fill="rgb(226,0,226)" stroke="rgb(226,0,226)" stroke-width="1" opacity="1" d="M 54.5 71 Q 56 72 53.5 73 Q 52 72 54.5 71 Z " /><path fill="rgb(226,0,226)" stroke="rgb(226,0,226)" stroke-width="1" opacity="1" d="M 21.5 72 Q 24 73 22.5 74 Q 20 73 21.5 72 Z " /><path fill="rgb(226,0,226)" stroke="rgb(226,0,226)" stroke-width="1" opacity="1" d="M 30.5 72 L 33 74.5 L 32.5 75 L 30 72.5 L 30.5 72 Z " /><path fill="rgb(226,0,226)" stroke="rgb(226,0,226)" stroke-width="1" opacity="1" d="M 52.5 74 L 53 74.5 L 50.5 77 L 50 76.5 L 52.5 74 Z " /><path fill="rgb(226,0,226)" stroke="rgb(226,0,226)" stroke-width="1" opacity="1" d="M 60.5 74 Q 62 75 59.5 76 Q 58 75 60.5 74 Z " /><path fill="rgb(226,0,226)" stroke="rgb(226,0,226)" stroke-width="1" opacity="1" d="M 24.5 76 L 27 78.5 L 26.5 79 L 24 76.5 L 24.5 76 Z " /><path fill="rgb(226,0,226)" stroke="rgb(226,0,226)" stroke-width="1" opacity="1" d="M 33.5 76 Q 36 77 34.5 78 Q 32 77 33.5 76 Z " /><path fill="rgb(226,0,226)" stroke="rgb(226,0,226)" stroke-width="1" opacity="1" d="M 58.5 77 L 59 77.5 L 56.5 80 L 56 79.5 L 58.5 77 Z " /><path fill="rgb(226,0,226)" stroke="rgb(226,0,226)" stroke-width="1" opacity="1" d="M 49.5 78 Q 51 79 48.5 80 Q 47 79 49.5 78 Z " /><path fill="rgb(226,0,226)" stroke="rgb(226,0,226)" stroke-width="1" opacity="1" d="M 81.5 79 L 83 79.5 L 81.5 80 L 81.5 79 Z " /><path fill="rgb(226,0,226)" stroke="rgb(226,0,226)" stroke-width="1" opacity="1" d="M 92.5 79 L 94 79.5 L 92.5 80 L 92.5 79 Z " /><path fill="rgb(226,0,226)" stroke="rgb(226,0,226)" stroke-width="1" opacity="1" d="M 122.5 79 L 128 79.5 L 122.5 80 L 122.5 79 Z " /><path fill="rgb(226,0,226)" stroke="rgb(226,0,226)" stroke-width="1" opacity="1" d="M 148.5 79 L 154 79.5 L 148 80 L 147.5 97 L 147 80.5 L 148.5 79 Z " /><path fill="rgb(226,0,226)" stroke="rgb(226,0,226)" stroke-width="1" opacity="1" d="M 37.5 81 L 37.5 82 L 37.5 81 Z " /><path fill="rgb(226,0,226)" stroke="rgb(226,0,226)" stroke-width="1" opacity="1" d="M 76.5 81 L 76.5 82 L 76.5 81 Z " /><path fill="rgb(226,0,226)" stroke="rgb(226,0,226)" stroke-width="1" opacity="1" d="M 98.5 81 L 98.5 82 L 98.5 81 Z " /><path fill="rgb(226,0,226)" stroke="rgb(226,0,226)" stroke-width="1" opacity="1" d="M 29.5 82 Q 32 83 30.5 84 Q 28 83 29.5 82 Z " /><path fill="rgb(226,0,226)" stroke="rgb(226,0,226)" stroke-width="1" opacity="1" d="M 46.5 82 Q 48 83 45.5 84 Q 44 83 46.5 82 Z " /><path fill="rgb(226,0,226)" stroke="rgb(226,0,226)" stroke-width="1" opacity="1" d="M 53.5 83 L 53.5 84 L 53.5 83 Z " /><path fill="rgb(226,0,226)" stroke="rgb(226,0,226)" stroke-width="1" opacity="1" d="M 73.5 83 L 74 83.5 L 71.5 86 L 71 85.5 L 73.5 83 Z " /><path fill="rgb(226,0,226)" stroke="rgb(226,0,226)" stroke-width="1" opacity="1" d="M 101.5 83 L 104 85.5 L 103.5 86 L 101 83.5 L 101.5 83 Z " /><path fill="rgb(226,0,226)" stroke="rgb(226,0,226)" stroke-width="1" opacity="1" d="M 40.5 85 Q 43 86 41.5 87 Q 39 86 40.5 85 Z " /><path fill="rgb(226,0,226)" stroke="rgb(226,0,226)" stroke-width="1" opacity="1" d="M 82.5 85 L 82.5 86 L 82.5 85 Z " /><path fill="rgb(226,0,226)" stroke="rgb(226,0,226)" stroke-width="1" opacity="1" d="M 92.5 85 L 92.5 86 L 92.5 85 Z " /><path fill="rgb(226,0,226)" stroke="rgb(226,0,226)" stroke-width="1" opacity="1" d="M 32.5 86 L 35 88.5 L 34.5 89 L 32 86.5 L 32.5 86 Z " /><path fill="rgb(226,0,226)" stroke="rgb(226,0,226)" stroke-width="1" opacity="1" d="M 43.5 86 L 43.5 87 L 43.5 86 Z " /><path fill="rgb(226,0,226)" stroke="rgb(226,0,226)" stroke-width="1" opacity="1" d="M 51.5 86 Q 53 87 50.5 88 Q 49 87 51.5 86 Z " /><path fill="rgb(226,0,226)" stroke="rgb(226,0,226)" stroke-width="1" opacity="1" d="M 80.5 86 L 80.5 87 L 80.5 86 Z " /><path fill="rgb(226,0,226)" stroke="rgb(226,0,226)" stroke-width="1" opacity="1" d="M 94.5 86 L 94.5 87 L 94.5 86 Z " /><path fill="rgb(226,0,226)" stroke="rgb(226,0,226)" stroke-width="1" opacity="1" d="M 70.5 87 L 70 88.5 L 69.5 90 L 69 88.5 L 70.5 87 Z " /><path fill="rgb(226,0,226)" stroke="rgb(226,0,226)" stroke-width="1" opacity="1" d="M 78.5 87 Q 80 88 77.5 89 Q 76 88 78.5 87 Z " /><path fill="rgb(226,0,226)" stroke="rgb(226,0,226)" stroke-width="1" opacity="1" d="M 96.5 87 Q 99 88 97.5 89 Q 95 88 96.5 87 Z " /><path fill="rgb(226,0,226)" stroke="rgb(226,0,226)" stroke-width="1" opacity="1" d="M 104.5 87 L 106 89.5 L 105 89.5 L 104.5 87 Z " /><path fill="rgb(226,0,226)" stroke="rgb(226,0,226)" stroke-width="1" opacity="1" d="M 48.5 90 L 49 90.5 L 46.5 93 L 46 92.5 L 48.5 90 Z " /><path fill="rgb(226,0,226)" stroke="rgb(226,0,226)" stroke-width="1" opacity="1" d="M 36.5 91 L 39 93.5 L 38.5 94 L 36 91.5 L 36.5 91 Z " /><path fill="rgb(226,0,226)" stroke="rgb(226,0,226)" stroke-width="1" opacity="1" d="M 75.5 91 L 76 92.5 L 75 92.5 L 75.5 91 Z " /><path fill="rgb(226,0,226)" stroke="rgb(226,0,226)" stroke-width="1" opacity="1" d="M 99.5 91 L 99.5 92 L 99.5 91 Z " /><path fill="rgb(226,0,226)" stroke="rgb(226,0,226)" stroke-width="1" opacity="1" d="M 68.5 94 L 68.5 95 L 68.5 94 Z " /><path fill="rgb(226,0,226)" stroke="rgb(226,0,226)" stroke-width="1" opacity="1" d="M 128.5 94 L 129 96.5 L 128 96.5 L 128.5 94 Z " /><path fill="rgb(226,0,226)" stroke="rgb(226,0,226)" stroke-width="1" opacity="1" d="M 75.5 96 L 76 97.5 L 75 97.5 L 75.5 96 Z " /><path fill="rgb(226,0,226)" stroke="rgb(226,0,226)" stroke-width="1" opacity="1" d="M 99.5 97 L 99.5 98 L 99.5 97 Z " /><path fill="rgb(226,0,226)" stroke="rgb(226,0,226)" stroke-width="1" opacity="1" d="M 146.5 98 L 146.5 99 L 146.5 98 Z " /><path fill="rgb(226,0,226)" stroke="rgb(226,0,226)" stroke-width="1" opacity="1" d="M 69.5 99 L 70 100.5 L 69 100.5 L 69.5 99 Z " /><path fill="rgb(226,0,226)" stroke="rgb(226,0,226)" stroke-width="1" opacity="1" d="M 76.5 99 L 79 101.5 L 78.5 102 L 76 99.5 L 76.5 99 Z " /><path fill="rgb(226,0,226)" stroke="rgb(226,0,226)" stroke-width="1" opacity="1" d="M 98.5 99 L 99 99.5 L 95.5 103 L 94 102.5 L 98.5 99 Z " /><path fill="rgb(226,0,226)" stroke="rgb(226,0,226)" stroke-width="1" opacity="1" d="M 105.5 99 L 106 100.5 L 105 100.5 L 105.5 99 Z " /><path fill="rgb(226,0,226)" stroke="rgb(226,0,226)" stroke-width="1" opacity="1" d="M 129.5 99 L 129.5 100 L 129.5 99 Z " /><path fill="rgb(226,0,226)" stroke="rgb(226,0,226)" stroke-width="1" opacity="1" d="M 122.5 100 L 122.5 101 L 122.5 100 Z " /><path fill="rgb(226,0,226)" stroke="rgb(226,0,226)" stroke-width="1" opacity="1" d="M 145.5 100 Q 147 101 144.5 102 Q 143 101 145.5 100 Z " /><path fill="rgb(226,0,226)" stroke="rgb(226,0,226)" stroke-width="1" opacity="1" d="M 130.5 101 Q 133 102 131.5 103 Q 129 102 130.5 101 Z " /><path fill="rgb(226,0,226)" stroke="rgb(226,0,226)" stroke-width="1" opacity="1" d="M 80.5 102 L 80.5 103 L 80.5 102 Z " /><path fill="rgb(226,0,226)" stroke="rgb(226,0,226)" stroke-width="1" opacity="1" d="M 142.5 102 L 142.5 103 L 142.5 102 Z " /><path fill="rgb(226,0,226)" stroke="rgb(226,0,226)" stroke-width="1" opacity="1" d="M 71.5 103 L 75 106.5 L 74.5 107 L 71 103.5 L 71.5 103 Z " /><path fill="rgb(226,0,226)" stroke="rgb(226,0,226)" stroke-width="1" opacity="1" d="M 82.5 103 L 82.5 104 L 82.5 103 Z " /><path fill="rgb(226,0,226)" stroke="rgb(226,0,226)" stroke-width="1" opacity="1" d="M 92.5 103 L 92.5 104 L 92.5 103 Z " /><path fill="rgb(226,0,226)" stroke="rgb(226,0,226)" stroke-width="1" opacity="1" d="M 103.5 103 L 104 103.5 L 100.5 107 L 100 106.5 L 103.5 103 Z " /><path fill="rgb(226,0,226)" stroke="rgb(226,0,226)" stroke-width="1" opacity="1" d="M 123.5 103 L 123.5 104 L 123.5 103 Z " /><path fill="rgb(226,0,226)" stroke="rgb(226,0,226)" stroke-width="1" opacity="1" d="M 133.5 103 L 133.5 104 L 133.5 103 Z " /><path fill="rgb(226,0,226)" stroke="rgb(226,0,226)" stroke-width="1" opacity="1" d="M 140.5 103 L 140.5 104 L 140.5 103 Z " /><path fill="rgb(226,0,226)" stroke="rgb(226,0,226)" stroke-width="1" opacity="1" d="M 85.5 104 L 90 104.5 L 85.5 105 L 85.5 104 Z " /><path fill="rgb(226,0,226)" stroke="rgb(226,0,226)" stroke-width="1" opacity="1" d="M 124.5 105 L 124.5 106 L 124.5 105 Z " /><path fill="rgb(226,0,226)" stroke="rgb(226,0,226)" stroke-width="1" opacity="1" d="M 147.5 105 L 148 109.5 L 147 109.5 L 147.5 105 Z " /><path fill="rgb(226,0,226)" stroke="rgb(226,0,226)" stroke-width="1" opacity="1" d="M 126.5 107 L 126.5 108 L 126.5 107 Z " /><path fill="rgb(226,0,226)" stroke="rgb(226,0,226)" stroke-width="1" opacity="1" d="M 77.5 108 L 79 108.5 L 77.5 109 L 77.5 108 Z " /><path fill="rgb(226,0,226)" stroke="rgb(226,0,226)" stroke-width="1" opacity="1" d="M 96.5 108 L 98 108.5 L 96.5 109 L 96.5 108 Z " /><path fill="rgb(226,0,226)" stroke="rgb(226,0,226)" stroke-width="1" opacity="1" d="M 128.5 108 L 128.5 109 L 128.5 108 Z " /><path fill="rgb(226,0,226)" stroke="rgb(226,0,226)" stroke-width="1" opacity="1" d="M 142.5 108 L 144 108.5 L 142.5 109 L 142.5 108 Z " /><path fill="rgb(226,0,226)" stroke="rgb(226,0,226)" stroke-width="1" opacity="1" d="M 39.5 109 L 39.5 110 L 39.5 109 Z " /><path fill="rgb(226,0,226)" stroke="rgb(226,0,226)" stroke-width="1" opacity="1" d="M 45.5 109 L 45.5 110 L 45.5 109 Z " /><path fill="rgb(226,0,226)" stroke="rgb(226,0,226)" stroke-width="1" opacity="1" d="M 81.5 109 L 81.5 110 L 81.5 109 Z " /><path fill="rgb(226,0,226)" stroke="rgb(226,0,226)" stroke-width="1" opacity="1" d="M 93.5 109 L 93.5 110 L 93.5 109 Z " /><path fill="rgb(226,0,226)" stroke="rgb(226,0,226)" stroke-width="1" opacity="1" d="M 130.5 109 L 130.5 110 L 130.5 109 Z " /><path fill="rgb(226,0,226)" stroke="rgb(226,0,226)" stroke-width="1" opacity="1" d="M 140.5 109 L 140.5 110 L 140.5 109 Z " /><path fill="rgb(226,0,226)" stroke="rgb(226,0,226)" stroke-width="1" opacity="1" d="M 153.5 109 L 153.5 110 L 153.5 109 Z " /><path fill="rgb(226,0,226)" stroke="rgb(226,0,226)" stroke-width="1" opacity="1" d="M 84.5 110 L 91 110.5 L 84.5 111 L 84.5 110 Z " /><path fill="rgb(226,0,226)" stroke="rgb(226,0,226)" stroke-width="1" opacity="1" d="M 133.5 110 L 138 110.5 L 133.5 111 L 133.5 110 Z " /><path fill="rgb(255,0,255)" stroke="rgb(255,0,255)" stroke-width="1" opacity="0.996078431372549" d="M 10.5 0 L 18 0.5 L 10.5 2 L 5 6.5 L 2 10.5 L 0.5 18 L 0 10.5 L 7.5 2 L 10.5 0 Z " /><path fill="rgb(255,0,255)" stroke="rgb(255,0,255)" stroke-width="1" opacity="0.996078431372549" d="M 162.5 0 L 169.5 0 L 178 7.5 L 180 10.5 L 180 17.5 L 179 17.5 L 178 10.5 L 173.5 5 L 169.5 2 L 162.5 1 L 162.5 0 Z " /><path fill="rgb(255,0,255)" stroke="rgb(255,0,255)" stroke-width="1" opacity="0.996078431372549" d="M 0.5 162 L 2 169.5 L 6.5 175 L 10.5 178 L 18 179.5 L 10.5 180 L 2 172.5 L 0 169.5 L 0.5 162 Z " /><path fill="rgb(255,0,255)" stroke="rgb(255,0,255)" stroke-width="1" opacity="0.996078431372549" d="M 179.5 162 L 180 169.5 L 172.5 178 L 169.5 180 L 162.5 180 L 162.5 179 L 169.5 178 L 175 173.5 L 178 169.5 L 179.5 162 Z " /><path fill="rgb(255,0,255)" stroke="rgb(255,0,255)" stroke-width="1" opacity="1" d="M 18.5 0 L 161.5 0 L 162.5 1 L 169.5 2 L 175 6.5 L 178 10.5 L 179 17.5 L 180 18.5 L 180 161.5 L 179 162.5 L 178 169.5 L 173.5 175 L 169.5 178 L 166.5 178 L 161.5 180 L 18.5 180 L 17.5 179 L 10.5 178 L 5 173.5 L 2 169.5 L 2 166.5 L 0 161.5 L 0 18.5 L 1 17.5 L 2 10.5 L 6.5 5 L 10.5 2 L 17.5 1 L 18.5 0 Z M 20 69 L 21 73 L 39 95 L 39 110 L 46 110 L 46 94 L 64 71 Q 63 68 57 69 L 50 77 L 43 88 L 33 75 L 29 71 L 29 69 L 20 69 Z M 82 79 L 74 83 L 69 89 Q 70 93 68 95 Q 70 96 69 101 L 71 104 L 78 109 L 81 109 L 85 111 L 91 111 L 95 109 L 98 109 L 101 107 L 106 101 L 106 89 L 104 86 L 99 81 L 97 81 L 94 79 L 82 79 Z M 122 79 L 122 101 L 124 105 Q 123 107 126 106 L 126 108 L 134 111 L 138 111 L 144 109 L 147 106 L 147 107 L 147 110 L 154 110 L 154 80 Q 154 78 149 79 L 147 81 L 147 98 L 146 100 L 140 104 Q 135 105 133 103 L 129 99 Q 130 94 128 94 L 128 79 L 122 79 Z " /><path fill="rgb(255,0,255)" stroke="rgb(255,0,255)" stroke-width="1" opacity="1" d="M 83.5 85 L 91.5 85 Q 96.33 86.67 99 90.5 Q 100.67 92.33 100 96.5 L 95.5 102 L 91.5 104 L 83.5 104 Q 78.67 102.33 76 98.5 L 75 93.5 L 76 90.5 L 79.5 87 L 83.5 85 Z " /><path fill="rgb(97,0,97)" stroke="rgb(97,0,97)" stroke-width="1" opacity="1" d="M 20.5 70 L 23 72.5 L 22.5 73 L 20 70.5 L 20.5 70 Z " /><path fill="rgb(97,0,97)" stroke="rgb(97,0,97)" stroke-width="1" opacity="1" d="M 28.5 70 Q 31 71 29.5 72 Q 27 71 28.5 70 Z " /><path fill="rgb(97,0,97)" stroke="rgb(97,0,97)" stroke-width="1" opacity="1" d="M 55.5 70 L 55.5 71 L 55.5 70 Z " /><path fill="rgb(97,0,97)" stroke="rgb(97,0,97)" stroke-width="1" opacity="1" d="M 62.5 70 L 62.5 71 L 62.5 70 Z " /><path fill="rgb(97,0,97)" stroke="rgb(97,0,97)" stroke-width="1" opacity="1" d="M 61.5 72 Q 63 73 60.5 74 Q 59 73 61.5 72 Z " /><path fill="rgb(97,0,97)" stroke="rgb(97,0,97)" stroke-width="1" opacity="1" d="M 53.5 73 L 53.5 74 L 53.5 73 Z " /><path fill="rgb(97,0,97)" stroke="rgb(97,0,97)" stroke-width="1" opacity="1" d="M 23.5 74 L 26 76.5 L 25.5 77 L 23 74.5 L 23.5 74 Z " /><path fill="rgb(97,0,97)" stroke="rgb(97,0,97)" stroke-width="1" opacity="1" d="M 31.5 74 Q 34 75 32.5 76 Q 30 75 31.5 74 Z " /><path fill="rgb(97,0,97)" stroke="rgb(97,0,97)" stroke-width="1" opacity="1" d="M 51.5 76 Q 53 77 50.5 78 Q 49 77 51.5 76 Z " /><path fill="rgb(97,0,97)" stroke="rgb(97,0,97)" stroke-width="1" opacity="1" d="M 58.5 76 Q 60 77 57.5 78 Q 56 77 58.5 76 Z " /><path fill="rgb(97,0,97)" stroke="rgb(97,0,97)" stroke-width="1" opacity="1" d="M 34.5 78 L 37 80.5 L 36.5 81 L 34 78.5 L 34.5 78 Z " /><path fill="rgb(97,0,97)" stroke="rgb(97,0,97)" stroke-width="1" opacity="1" d="M 27.5 79 L 30 81.5 L 29.5 82 L 27 79.5 L 27.5 79 Z " /><path fill="rgb(97,0,97)" stroke="rgb(97,0,97)" stroke-width="1" opacity="1" d="M 83.5 79 L 92 79.5 L 83.5 80 L 83.5 79 Z " /><path fill="rgb(97,0,97)" stroke="rgb(97,0,97)" stroke-width="1" opacity="1" d="M 48.5 80 Q 50 81 47.5 82 Q 46 81 48.5 80 Z " /><path fill="rgb(97,0,97)" stroke="rgb(97,0,97)" stroke-width="1" opacity="1" d="M 55.5 80 L 56 80.5 L 53.5 83 L 53 82.5 L 55.5 80 Z " /><path fill="rgb(97,0,97)" stroke="rgb(97,0,97)" stroke-width="1" opacity="1" d="M 79.5 80 L 79.5 81 L 79.5 80 Z " /><path fill="rgb(97,0,97)" stroke="rgb(97,0,97)" stroke-width="1" opacity="1" d="M 95.5 80 L 95.5 81 L 95.5 80 Z " /><path fill="rgb(97,0,97)" stroke="rgb(97,0,97)" stroke-width="1" opacity="1" d="M 122.5 80 L 123 99.5 L 122 99.5 L 122.5 80 Z " /><path fill="rgb(97,0,97)" stroke="rgb(97,0,97)" stroke-width="1" opacity="1" d="M 153.5 80 L 154 108.5 Q 153 111 148.5 110 L 148.5 109 Q 153 109.5 153 108.5 L 153.5 80 Z " /><path fill="rgb(97,0,97)" stroke="rgb(97,0,97)" stroke-width="1" opacity="1" d="M 77.5 81 L 77.5 82 L 77.5 81 Z " /><path fill="rgb(97,0,97)" stroke="rgb(97,0,97)" stroke-width="1" opacity="1" d="M 97.5 81 L 97.5 82 L 97.5 81 Z " /><path fill="rgb(97,0,97)" stroke="rgb(97,0,97)" stroke-width="1" opacity="1" d="M 37.5 82 L 40 84.5 L 39.5 85 L 37 82.5 L 37.5 82 Z " /><path fill="rgb(97,0,97)" stroke="rgb(97,0,97)" stroke-width="1" opacity="1" d="M 75.5 82 L 76 82.5 L 71.5 87 L 71 86.5 L 75.5 82 Z " /><path fill="rgb(97,0,97)" stroke="rgb(97,0,97)" stroke-width="1" opacity="1" d="M 99.5 82 L 104 86.5 L 103.5 87 L 99 82.5 L 99.5 82 Z " /><path fill="rgb(97,0,97)" stroke="rgb(97,0,97)" stroke-width="1" opacity="1" d="M 46.5 83 L 47 83.5 L 44.5 86 L 44 85.5 L 46.5 83 Z " /><path fill="rgb(97,0,97)" stroke="rgb(97,0,97)" stroke-width="1" opacity="1" d="M 31.5 84 L 34 86.5 L 33.5 87 L 31 84.5 L 31.5 84 Z " /><path fill="rgb(97,0,97)" stroke="rgb(97,0,97)" stroke-width="1" opacity="1" d="M 52.5 84 L 53 84.5 L 50.5 87 L 50 86.5 L 52.5 84 Z " /><path fill="rgb(97,0,97)" stroke="rgb(97,0,97)" stroke-width="1" opacity="1" d="M 84.5 84 L 91 84.5 L 84.5 85 L 84.5 84 Z " /><path fill="rgb(97,0,97)" stroke="rgb(97,0,97)" stroke-width="1" opacity="1" d="M 81.5 85 L 81.5 86 L 81.5 85 Z " /><path fill="rgb(97,0,97)" stroke="rgb(97,0,97)" stroke-width="1" opacity="1" d="M 93.5 85 L 93.5 86 L 93.5 85 Z " /><path fill="rgb(97,0,97)" stroke="rgb(97,0,97)" stroke-width="1" opacity="1" d="M 79.5 86 L 79.5 87 L 79.5 86 Z " /><path fill="rgb(97,0,97)" stroke="rgb(97,0,97)" stroke-width="1" opacity="1" d="M 95.5 86 L 95.5 87 L 95.5 86 Z " /><path fill="rgb(97,0,97)" stroke="rgb(97,0,97)" stroke-width="1" opacity="1" d="M 41.5 87 L 42.5 88 L 44 87.5 L 42.5 89 Q 40 88 41.5 87 Z " /><path fill="rgb(97,0,97)" stroke="rgb(97,0,97)" stroke-width="1" opacity="1" d="M 49.5 88 Q 51 89 48.5 90 Q 47 89 49.5 88 Z " /><path fill="rgb(97,0,97)" stroke="rgb(97,0,97)" stroke-width="1" opacity="1" d="M 70.5 88 L 70.5 89 L 70.5 88 Z " /><path fill="rgb(97,0,97)" stroke="rgb(97,0,97)" stroke-width="1" opacity="1" d="M 35.5 89 Q 38 90 36.5 91 Q 34 90 35.5 89 Z " /><path fill="rgb(97,0,97)" stroke="rgb(97,0,97)" stroke-width="1" opacity="1" d="M 76.5 89 Q 78 90 75.5 91 Q 74 90 76.5 89 Z " /><path fill="rgb(97,0,97)" stroke="rgb(97,0,97)" stroke-width="1" opacity="1" d="M 98.5 89 Q 101 90 99.5 91 Q 97 90 98.5 89 Z " /><path fill="rgb(97,0,97)" stroke="rgb(97,0,97)" stroke-width="1" opacity="1" d="M 69.5 90 L 70 91.5 L 69 91.5 L 69.5 90 Z " /><path fill="rgb(97,0,97)" stroke="rgb(97,0,97)" stroke-width="1" opacity="1" d="M 105.5 90 L 106 91.5 L 105 91.5 L 105.5 90 Z " /><path fill="rgb(97,0,97)" stroke="rgb(97,0,97)" stroke-width="1" opacity="1" d="M 45.5 93 L 46 108.5 Q 45 111 40.5 110 L 39 108.5 L 39 94.5 L 40 94.5 L 40 109 L 45 109 L 45.5 93 Z " /><path fill="rgb(97,0,97)" stroke="rgb(97,0,97)" stroke-width="1" opacity="1" d="M 74.5 93 L 75 96.5 L 74 96.5 L 74.5 93 Z " /><path fill="rgb(97,0,97)" stroke="rgb(97,0,97)" stroke-width="1" opacity="1" d="M 100.5 93 L 101 96.5 L 100 96.5 L 100.5 93 Z " /><path fill="rgb(97,0,97)" stroke="rgb(97,0,97)" stroke-width="1" opacity="1" d="M 69.5 97 L 70 98.5 L 69 98.5 L 69.5 97 Z " /><path fill="rgb(97,0,97)" stroke="rgb(97,0,97)" stroke-width="1" opacity="1" d="M 105.5 97 L 106 98.5 L 105 98.5 L 105.5 97 Z " /><path fill="rgb(97,0,97)" stroke="rgb(97,0,97)" stroke-width="1" opacity="1" d="M 128.5 97 L 129 98.5 L 128 98.5 L 128.5 97 Z " /><path fill="rgb(97,0,97)" stroke="rgb(97,0,97)" stroke-width="1" opacity="1" d="M 147.5 97 L 147.5 98 L 147.5 97 Z " /><path fill="rgb(97,0,97)" stroke="rgb(97,0,97)" stroke-width="1" opacity="1" d="M 75.5 98 L 75.5 99 L 75.5 98 Z " /><path fill="rgb(97,0,97)" stroke="rgb(97,0,97)" stroke-width="1" opacity="1" d="M 99.5 98 L 99.5 99 L 99.5 98 Z " /><path fill="rgb(97,0,97)" stroke="rgb(97,0,97)" stroke-width="1" opacity="1" d="M 146.5 99 L 146.5 100 L 146.5 99 Z " /><path fill="rgb(97,0,97)" stroke="rgb(97,0,97)" stroke-width="1" opacity="1" d="M 76.5 100 L 76.5 101 L 76.5 100 Z " /><path fill="rgb(97,0,97)" stroke="rgb(97,0,97)" stroke-width="1" opacity="1" d="M 98.5 100 L 98.5 101 L 98.5 100 Z " /><path fill="rgb(97,0,97)" stroke="rgb(97,0,97)" stroke-width="1" opacity="1" d="M 129.5 100 L 129.5 101 L 129.5 100 Z " /><path fill="rgb(97,0,97)" stroke="rgb(97,0,97)" stroke-width="1" opacity="1" d="M 70.5 101 Q 73 102 71.5 103 Q 69 102 70.5 101 Z " /><path fill="rgb(97,0,97)" stroke="rgb(97,0,97)" stroke-width="1" opacity="1" d="M 104.5 101 Q 106 102 103.5 103 Q 102 102 104.5 101 Z " /><path fill="rgb(97,0,97)" stroke="rgb(97,0,97)" stroke-width="1" opacity="1" d="M 79.5 102 L 82 103.5 L 80.5 104 Q 78 103 79.5 102 Z " /><path fill="rgb(97,0,97)" stroke="rgb(97,0,97)" stroke-width="1" opacity="1" d="M 123.5 102 L 123.5 103 L 123.5 102 Z " /><path fill="rgb(97,0,97)" stroke="rgb(97,0,97)" stroke-width="1" opacity="1" d="M 143.5 102 Q 145 103 142.5 104 L 141 103.5 L 143.5 102 Z " /><path fill="rgb(97,0,97)" stroke="rgb(97,0,97)" stroke-width="1" opacity="1" d="M 93.5 103 L 95 103.5 L 93.5 104 L 93.5 103 Z " /><path fill="rgb(97,0,97)" stroke="rgb(97,0,97)" stroke-width="1" opacity="1" d="M 132.5 103 L 132.5 104 L 132.5 103 Z " /><path fill="rgb(97,0,97)" stroke="rgb(97,0,97)" stroke-width="1" opacity="1" d="M 83.5 104 L 85 104.5 L 83.5 105 L 83.5 104 Z " /><path fill="rgb(97,0,97)" stroke="rgb(97,0,97)" stroke-width="1" opacity="1" d="M 90.5 104 L 92 104.5 L 90.5 105 L 90.5 104 Z " /><path fill="rgb(97,0,97)" stroke="rgb(97,0,97)" stroke-width="1" opacity="1" d="M 124.5 104 L 128 107.5 L 127.5 108 L 124 104.5 L 124.5 104 Z " /><path fill="rgb(97,0,97)" stroke="rgb(97,0,97)" stroke-width="1" opacity="1" d="M 135.5 104 L 139 104.5 L 135.5 105 L 135.5 104 Z " /><path fill="rgb(97,0,97)" stroke="rgb(97,0,97)" stroke-width="1" opacity="1" d="M 146.5 105 L 147 105.5 L 144.5 108 L 143 107.5 L 146.5 105 Z " /><path fill="rgb(97,0,97)" stroke="rgb(97,0,97)" stroke-width="1" opacity="1" d="M 75.5 106 L 78 107.5 L 76.5 108 Q 74 107 75.5 106 Z " /><path fill="rgb(97,0,97)" stroke="rgb(97,0,97)" stroke-width="1" opacity="1" d="M 99.5 106 Q 101 107 98.5 108 L 97 107.5 L 99.5 106 Z " /><path fill="rgb(97,0,97)" stroke="rgb(97,0,97)" stroke-width="1" opacity="1" d="M 79.5 108 L 79.5 109 L 79.5 108 Z " /><path fill="rgb(97,0,97)" stroke="rgb(97,0,97)" stroke-width="1" opacity="1" d="M 95.5 108 L 95.5 109 L 95.5 108 Z " /><path fill="rgb(97,0,97)" stroke="rgb(97,0,97)" stroke-width="1" opacity="1" d="M 141.5 108 L 141.5 109 L 141.5 108 Z " /><path fill="rgb(97,0,97)" stroke="rgb(97,0,97)" stroke-width="1" opacity="1" d="M 82.5 109 L 84 109.5 L 82.5 110 L 82.5 109 Z " /><path fill="rgb(97,0,97)" stroke="rgb(97,0,97)" stroke-width="1" opacity="1" d="M 91.5 109 L 93 109.5 L 91.5 110 L 91.5 109 Z " /><path fill="rgb(97,0,97)" stroke="rgb(97,0,97)" stroke-width="1" opacity="1" d="M 131.5 109 L 133 109.5 L 131.5 110 L 131.5 109 Z " /><path fill="rgb(97,0,97)" stroke="rgb(97,0,97)" stroke-width="1" opacity="1" d="M 138.5 109 L 140 109.5 L 138.5 110 L 138.5 109 Z " /><path fill="rgb(0,0,0)" stroke="rgb(0,0,0)" stroke-width="1" opacity="0" d="M 0 0 L 10 0.5 L 2 7.5 L 0.5 10 L 0 0 Z " /><path fill="rgb(0,0,0)" stroke="rgb(0,0,0)" stroke-width="1" opacity="0" d="M 170.5 0 L 180 0 L 180 9.5 Q 179 11 178 8.5 L 172.5 2 Q 168.69 1.31 170.5 0 Z " /><path fill="rgb(0,0,0)" stroke="rgb(0,0,0)" stroke-width="1" opacity="0" d="M 0.5 170 L 7.5 178 L 10 179.5 L 0 180 L 0.5 170 Z " /><path fill="rgb(0,0,0)" stroke="rgb(0,0,0)" stroke-width="1" opacity="0" d="M 179.5 170 L 180 180 L 170 179.5 L 178 172.5 L 179.5 170 Z " /><path fill="rgb(2,0,2)" stroke="rgb(2,0,2)" stroke-width="1" opacity="1" d="M 21.5 70 Q 29.5 68.5 31 73.5 L 42.5 89 L 56.5 70 L 61.5 70 L 62 71.5 L 45 93.5 L 45 109 L 40 109 L 40 94.5 L 23 73.5 L 21 70.5 L 21.5 70 Z " /><path fill="rgb(2,0,2)" stroke="rgb(2,0,2)" stroke-width="1" opacity="1" d="M 80.5 80 L 94.5 80 Q 101.33 82.67 105 88.5 L 106 96.5 Q 104.25 97.25 105 100.5 L 100.5 106 L 94.5 109 Q 91.25 108.25 90.5 110 L 84.5 110 L 74.5 106 L 72 103.5 L 70 100.5 L 69 92.5 L 71 87.5 L 76.5 82 L 80.5 80 Z M 85 84 L 80 86 L 75 91 L 74 94 L 74 97 L 76 101 L 78 101 L 81 104 L 84 105 L 92 105 L 95 104 L 98 101 L 99 101 L 101 97 L 100 91 Q 96 83 85 84 Z " /><path fill="rgb(2,0,2)" stroke="rgb(2,0,2)" stroke-width="1" opacity="1" d="M 123 80 L 127.5 80 L 128 80.5 L 128 98.5 L 132.5 104 L 138.5 105 Q 139.25 103.25 142.5 104 L 147 99.5 L 148 97.5 L 148 80 L 152.5 80 L 153 80.5 L 153 109 L 148 109 L 148 105 L 146.5 105 Q 142.48 109.97 133.5 110 Q 132.75 108.25 129.5 109 L 124 103.5 L 123 101.5 L 123 80 Z " /></svg>